# xmcd
#
# Track frame offsets:
#	150
#	14411
#	28369
#	47917
#	61314
#	82777
#	102274
#	122769
#	137158
#	162091
#
# Disc length: 2489 seconds
# Revision: 0
# Processed by: cddbd v1.5.2PL0 Copyright (c) Steve Scherf et al.
# Submitted via: dBpowerAMP V12.0
#
DISCID=8009b70a
DTITLE=Courtney Marie Andrews - On My Page
DYEAR=2013
DGENRE=Americana
TTITLE0=Woman of Many Colors
TTITLE1=This Time
TTITLE2=It Keeps Going
TTITLE3=Blue Woman
TTITLE4=Haven't Seen It
TTITLE5=500 Nights
TTITLE6=Fall City
TTITLE7=Paintings From Michael
TTITLE8=On My Page
TTITLE9=Left-Handed Angel
EXTD=
EXTT0=
EXTT1=
EXTT2=
EXTT3=
EXTT4=
EXTT5=
EXTT6=
EXTT7=
EXTT8=
EXTT9=
PLAYORDER=
